<svg xmlns="http://www.w3.org/2000/svg" viewBox="0 0 400 400" width="400" height="400" role="img" aria-label="Vó Neis Confeitaria">
  <defs>
    <style>
      .script { font-family: 'Brush Script MT','Segoe Script','Comic Sans MS',cursive; font-style: italic; }
      .sans { font-family: 'DM Sans','Arial',sans-serif; letter-spacing: 5px; }
    </style>
  </defs>

  <g id="scallop">
    <circle cx="200" cy="200" r="190" fill="#F2A8B8"/>
    <g fill="#F2A8B8">
      <g id="bumps"><circle cx="200" cy="18" r="15"/></g>
      <use href="#bumps" transform="rotate(12.857 200 200)"/>
      <use href="#bumps" transform="rotate(25.714 200 200)"/>
      <use href="#bumps" transform="rotate(38.571 200 200)"/>
      <use href="#bumps" transform="rotate(51.428 200 200)"/>
      <use href="#bumps" transform="rotate(64.285 200 200)"/>
      <use href="#bumps" transform="rotate(77.142 200 200)"/>
      <use href="#bumps" transform="rotate(90 200 200)"/>
      <use href="#bumps" transform="rotate(102.857 200 200)"/>
      <use href="#bumps" transform="rotate(115.714 200 200)"/>
      <use href="#bumps" transform="rotate(128.571 200 200)"/>
      <use href="#bumps" transform="rotate(141.428 200 200)"/>
      <use href="#bumps" transform="rotate(154.285 200 200)"/>
      <use href="#bumps" transform="rotate(167.142 200 200)"/>
      <use href="#bumps" transform="rotate(180 200 200)"/>
      <use href="#bumps" transform="rotate(192.857 200 200)"/>
      <use href="#bumps" transform="rotate(205.714 200 200)"/>
      <use href="#bumps" transform="rotate(218.571 200 200)"/>
      <use href="#bumps" transform="rotate(231.428 200 200)"/>
      <use href="#bumps" transform="rotate(244.285 200 200)"/>
      <use href="#bumps" transform="rotate(257.142 200 200)"/>
      <use href="#bumps" transform="rotate(270 200 200)"/>
      <use href="#bumps" transform="rotate(282.857 200 200)"/>
      <use href="#bumps" transform="rotate(295.714 200 200)"/>
      <use href="#bumps" transform="rotate(308.571 200 200)"/>
      <use href="#bumps" transform="rotate(321.428 200 200)"/>
      <use href="#bumps" transform="rotate(334.285 200 200)"/>
      <use href="#bumps" transform="rotate(347.142 200 200)"/>
    </g>
  </g>

  <circle cx="200" cy="200" r="180" fill="#FBE0E6"/>
  <circle cx="200" cy="200" r="172" fill="none" stroke="#4A2C1A" stroke-width="2.5"/>

  <!-- TOP TREATS -->
  <g transform="translate(120 112) scale(1.25)">
    <path d="M-10 8 h20 l-3 18 h-14 z" fill="#E59AB0"/>
    <path d="M-11 8 h22 v-2 a11 11 0 0 0 -22 0 z" fill="#FBE0E6"/>
    <circle cx="0" cy="-6" r="7" fill="#FFF"/>
    <circle cx="-6" cy="-2" r="6" fill="#FFF"/>
    <circle cx="6" cy="-2" r="6" fill="#FFF"/>
    <circle cx="0" cy="-14" r="3.5" fill="#D6536A"/>
    <path d="M0 -17 q3 -4 6 -3" stroke="#7A5A3A" stroke-width="1.5" fill="none"/>
  </g>

  <g transform="translate(172 116) scale(1.15)">
    <circle cx="0" cy="2" r="11" fill="#5B3825"/>
    <path d="M-9 -1 q9 -10 18 0 q-9 5 -18 0z" fill="#E59AB0"/>
    <circle cx="0" cy="-6" r="3" fill="#D6536A"/>
  </g>

  <g transform="translate(208 122) scale(1.1)">
    <path d="M0 -6 q11 0 9 11 q-2 9 -9 12 q-7 -3 -9 -12 q-2 -11 9 -11z" fill="#E15D74"/>
    <path d="M-6 -7 q6 -5 12 0 q-3 3 -6 3 q-3 0 -6 -3z" fill="#6FA86A"/>
    <g fill="#FBE0E6"><circle cx="-3" cy="3" r="1"/><circle cx="3" cy="3" r="1"/><circle cx="0" cy="9" r="1"/><circle cx="-4" cy="11" r="1"/><circle cx="4" cy="11" r="1"/></g>
  </g>

  <g transform="translate(266 114) scale(1.3)">
    <rect x="-22" y="-2" width="44" height="20" rx="2" fill="#FFF"/>
    <rect x="-22" y="3" width="44" height="5" fill="#5B3825"/>
    <rect x="-22" y="12" width="44" height="5" fill="#5B3825"/>
    <path d="M-22 -2 q22 -8 44 0z" fill="#5B3825"/>
    <circle cx="-8" cy="-6" r="4" fill="#E15D74"/>
    <circle cx="8" cy="-6" r="4" fill="#E15D74"/>
    <path d="M-12 -9 q4 -3 8 0" stroke="#6FA86A" stroke-width="1.4" fill="none"/>
    <path d="M4 -9 q4 -3 8 0" stroke="#6FA86A" stroke-width="1.4" fill="none"/>
  </g>

  <!-- WORDMARK -->
  <text x="200" y="240" text-anchor="middle" class="script" font-size="96" fill="#4A2C1A">Vó Neis</text>
  <text x="200" y="276" text-anchor="middle" class="sans" font-size="26" font-weight="600" fill="#4A2C1A">CONFEITARIA</text>

  <!-- BOTTOM TREATS -->
  <g transform="translate(132 308) scale(1.15)">
    <path d="M-9 6 h18 l-3 16 h-12 z" fill="#E59AB0"/>
    <circle cx="0" cy="-2" r="7" fill="#5B3825"/>
    <circle cx="-6" cy="2" r="6" fill="#5B3825"/>
    <circle cx="6" cy="2" r="6" fill="#5B3825"/>
    <circle cx="0" cy="-9" r="3" fill="#D6536A"/>
  </g>

  <g transform="translate(174 310) scale(1.2)">
    <circle cx="0" cy="0" r="11" fill="#5B3825"/>
    <circle cx="0" cy="-4" r="3" fill="#D6536A"/>
    <path d="M-7 -3 q7 -6 14 0" stroke="#7A5A3A" stroke-width="1.2" fill="none"/>
  </g>

  <g transform="translate(216 308) scale(1.25)">
    <path d="M0 -8 q13 0 11 13 q-2 11 -11 15 q-9 -4 -11 -15 q-2 -13 11 -13z" fill="#E15D74"/>
    <path d="M-7 -9 q7 -6 14 0 q-4 4 -7 4 q-3 0 -7 -4z" fill="#6FA86A"/>
    <g fill="#FBE0E6"><circle cx="-3" cy="4" r="1.1"/><circle cx="3" cy="4" r="1.1"/><circle cx="0" cy="11" r="1.1"/><circle cx="-4" cy="14" r="1.1"/><circle cx="4" cy="14" r="1.1"/></g>
  </g>

  <g transform="translate(268 310) scale(1.25)">
    <path d="M-20 14 L4 -14 L22 14 Z" fill="#F2A8B8"/>
    <path d="M-20 14 L4 -14 L22 14 Z" fill="none" stroke="#D6536A" stroke-width="1.5"/>
    <path d="M-12 5 L4 -14 L13 0" stroke="#FFF" stroke-width="3" fill="none"/>
    <path d="M-6 11 L8 -6" stroke="#FFF" stroke-width="2.4" fill="none"/>
  </g>
</svg>
